<?xml version="1.0" encoding="UTF-8"?>
<!DOCTYPE svg PUBLIC "-//W3C//DTD SVG 1.1//EN" "http://www.w3.org/Graphics/SVG/1.1/DTD/svg11.dtd">
<svg version="1.1" xmlns="http://www.w3.org/2000/svg" xmlns:xlink="http://www.w3.org/1999/xlink" x="0" y="0" width="24px" height="20px" viewBox="0, 0, 2023.41, 1377.77">
  <g id="Layer_1">
    <g>
      <path d="M2009.185,1009.112 C2010.762,1021.469 1975.924,1025.372 1975.924,1025.372 C1975.924,1025.372 2006.859,1026.113 1992.184,1049.336 C1977.509,1072.566 1951.953,1052.41 1951.953,1052.41 C1950.376,1061.692 1917.856,1074.892 1912.471,1053.988 C1906.982,1033.084 1939.502,1026.113 1939.502,1026.113 C1884.597,1023.787 1906.242,978.92 1944.99,977.342 C1983.636,975.758 1972.856,1001.305 1972.856,1001.305 C1989.117,988.201 2007.703,996.662 2009.185,1009.112" fill="#BEAC96"/>
      <path d="M1920.554,1074.893 C1930.591,1074.893 1938.761,1079.717 1938.761,1085.758 C1938.761,1091.703 1930.591,1096.537 1920.554,1096.537 C1916.185,1096.537 1912.187,1095.599 1909.033,1094.023 C1908.292,1091.609 1906.06,1089.653 1903.087,1088.645 L1902.992,1088.645 C1902.614,1087.707 1902.339,1086.784 1902.339,1085.758 C1902.339,1079.717 1910.523,1074.893 1920.554,1074.893" fill="#BEAC96"/>
      <path d="M1917.856,1171.969 L1895.745,1171.969 L1894.532,1157.207 L1914.601,1155.804 C1915.901,1162.033 1917.021,1167.789 1917.856,1171.969" fill="#D51F46"/>
      <path d="M1909.032,1094.022 C1909.221,1094.589 1909.308,1095.14 1909.308,1095.789 C1909.308,1100.061 1904.664,1103.507 1898.899,1103.507 C1893.143,1103.507 1888.404,1100.061 1888.404,1095.789 C1888.404,1091.522 1893.143,1088.075 1898.899,1088.075 C1900.389,1088.075 1901.69,1088.265 1902.991,1088.644 L1903.087,1088.644 C1904.017,1090.868 1906.154,1092.72 1909.032,1094.022" fill="#BEAC96"/>
      <path d="M1909.032,1094.022 C1906.154,1092.72 1904.017,1090.868 1903.087,1088.644 C1906.059,1089.652 1908.292,1091.609 1909.032,1094.022" fill="#BEAC96"/>
      <path d="M1903.915,1057.427 C1903.915,1057.427 1876.048,1095.789 1861.003,1097.003 C1861.003,1097.003 1883.019,1058.633 1903.915,1057.427" fill="#007AB5"/>
      <path d="M1821.238,1167.142 C1835.075,1167.142 1846.319,1177.362 1846.319,1190.001 C1846.319,1202.538 1835.075,1212.853 1821.238,1212.853 C1807.39,1212.853 1796.153,1202.538 1796.153,1190.001 C1796.153,1177.362 1807.39,1167.142 1821.238,1167.142" fill="#343534"/>
      <path d="M1827.183,1096.9 L1743.654,1094.59 L1746.446,1025.837 C1746.446,1025.837 1800.058,1026.388 1805.159,1026.388 C1810.183,1026.388 1827.183,1096.9 1827.183,1096.9" fill="#6BC2BF"/>
      <path d="M1727.867,1025.838 L1721.638,1095.789 L1660.321,1095.789 L1663.018,1076.556 L1648.706,1075.254 C1652.61,1065.225 1667.852,1026.303 1670.351,1025.838 C1673.142,1025.278 1727.867,1025.838 1727.867,1025.838" fill="#6BC2BF"/>
      <path d="M1598.91,1172.348 C1598.91,1172.348 1606.622,1123.388 1605.794,1116.416 C1605.794,1116.416 1598.074,1150.324 1598.074,1161.567 C1597.798,1155.993 1595.85,1121.527 1587.303,1118.372 C1587.303,1118.372 1597.711,1170.392 1598.91,1172.348 M1721.638,1095.789 L1727.867,1025.838 C1727.867,1025.838 1673.142,1025.278 1670.351,1025.838 C1667.853,1026.303 1652.61,1065.225 1648.706,1075.254 L1644.346,1074.893 C1644.346,1074.893 1631.43,1103.69 1634.221,1104.809 C1637.013,1105.922 1659.028,1104.809 1659.028,1104.809 L1660.321,1095.789 z M1743.653,1094.59 L1827.183,1096.901 C1827.183,1096.901 1810.183,1026.389 1805.159,1026.389 C1800.058,1026.389 1746.445,1025.838 1746.445,1025.838 z M1919.071,1178.664 L1858.212,1180.886 C1858.212,1180.886 1851.981,1157.854 1816.964,1157.207 C1782.03,1156.647 1783.704,1186.557 1783.704,1186.557 L1678.811,1183.773 C1678.811,1183.773 1679.372,1151.625 1648.895,1149.298 C1618.427,1147.075 1609.413,1180.886 1609.413,1180.886 C1609.413,1180.886 1603.468,1177.733 1601.615,1175.786 C1599.66,1173.924 1597.711,1182.756 1597.711,1182.756 C1597.711,1182.756 1575.317,1111.78 1576.893,1109.825 C1578.377,1107.868 1587.673,1112.513 1587.673,1112.513 C1587.673,1112.513 1589.628,1102.483 1591.938,1100.614 C1594.274,1098.667 1605.045,1107.498 1605.045,1107.498 C1605.045,1107.498 1604.683,1099.036 1608.104,1098.304 C1611.638,1097.459 1618.979,1104.809 1618.979,1104.809 C1618.979,1104.809 1651.686,1007.717 1663.018,1006.606 C1674.255,1005.493 1805.159,1002.142 1816.964,1011.715 C1828.862,1021.281 1856.446,1107.584 1856.446,1107.584 C1856.446,1107.584 1897.702,1109.265 1902.716,1113.255 C1905.69,1115.581 1910.886,1137.786 1914.6,1155.804 L1894.532,1157.207 L1895.745,1171.969 L1917.855,1171.969 C1918.605,1176.062 1919.071,1178.664 1919.071,1178.664" fill="#005C87"/>
      <path d="M1644.062,1163.988 C1658.003,1163.988 1669.24,1174.208 1669.24,1186.832 C1669.24,1199.472 1658.003,1209.692 1644.062,1209.692 C1630.231,1209.692 1618.98,1199.472 1618.98,1186.832 C1618.98,1174.208 1630.231,1163.988 1644.062,1163.988" fill="#343534"/>
      <path d="M1648.706,1075.254 L1663.019,1076.556 L1660.321,1095.789 L1659.028,1104.809 C1659.028,1104.809 1637.013,1105.922 1634.221,1104.809 C1631.43,1103.69 1644.346,1074.893 1644.346,1074.893 z" fill="#007AB5"/>
      <path d="M1591.577,1043.492 C1615.911,1052.773 1617.03,1095.789 1617.03,1095.789 C1601.978,1076.004 1591.577,1043.492 1591.577,1043.492" fill="#007AB5"/>
      <path d="M1605.045,1193.156 C1609.319,1194.741 1616.651,1202.823 1616.651,1202.823 C1616.651,1202.823 1609.698,1209.416 1581.168,1202.823 C1581.168,1202.823 1600.771,1191.675 1605.045,1193.156" fill="#005C87"/>
      <path d="M1598.074,1161.566 C1598.074,1150.323 1605.794,1116.416 1605.794,1116.416 C1606.622,1123.387 1598.91,1172.347 1598.91,1172.347 C1597.711,1170.391 1587.303,1118.372 1587.303,1118.372 C1595.85,1121.526 1597.798,1155.993 1598.074,1161.566" fill="#007AB5"/>
      <path d="M1584.977,1163.051 L1594.275,1185.446 L1588.044,1187.4 C1588.044,1187.4 1568.812,1176.251 1573.828,1168.444 C1578.843,1160.733 1584.977,1163.051 1584.977,1163.051" fill="#005C87"/>
      <path d="M1564.356,1049.43 C1563.236,1049.517 1562.496,1049.707 1562.496,1049.707 C1562.496,1049.707 1563.236,1049.707 1564.356,1049.43 M1564.546,1049.43 C1568.346,1049.06 1576.066,1049.336 1577.177,1057.513 C1579.307,1072.101 1553.207,1080.735 1544.66,1072.937 C1536.205,1065.225 1547.813,1055.188 1547.813,1055.188 C1531.561,1060.581 1499.784,1060.581 1499.043,1044.312 C1498.207,1028.061 1516.784,1021.099 1516.784,1021.099 C1492.08,1021.099 1464.196,1009.485 1461.878,990.157 C1459.56,970.735 1468.842,950.666 1519.111,946.03 C1569.458,941.385 1591.104,955.319 1591.938,977.705 C1592.696,1000.187 1542.333,1011.061 1542.333,1011.061 C1542.333,1011.061 1569.458,1007.908 1574.111,1024.993 C1579.401,1044.227 1569.094,1048.508 1564.546,1049.43" fill="#A6937F"/>
      <path d="M1579.954,1078.425 C1585.725,1078.425 1590.362,1081.295 1590.362,1084.922 C1590.362,1088.542 1585.725,1091.523 1579.954,1091.523 C1574.111,1091.523 1569.458,1088.542 1569.458,1084.922 C1569.458,1081.295 1574.111,1078.425 1579.954,1078.425" fill="#A6937F"/>
      <path d="M1556.085,1196.688 C1557.197,1195.104 1581.168,1194.741 1581.168,1194.741 C1581.168,1194.741 1556.455,1205.141 1552.56,1205.141 C1548.743,1205.141 1554.87,1198.171 1556.085,1196.688" fill="#005C87"/>
      <path d="M575.562,1007.357 C577.18,1020.025 541.459,1024.026 541.459,1024.026 C541.459,1024.026 573.178,1024.786 558.135,1048.59 C543.084,1072.406 516.885,1051.744 516.885,1051.744 C515.268,1061.258 481.941,1074.79 476.42,1053.359 C470.794,1031.931 504.122,1024.786 504.122,1024.786 C447.846,1022.401 470.033,976.406 509.749,974.789 C549.373,973.164 538.314,999.354 538.314,999.354 C554.99,985.919 574.035,994.594 575.562,1007.357" fill="#BEAC96"/>
      <path d="M484.705,1074.789 C494.988,1074.789 503.37,1079.735 503.37,1085.927 C503.37,1092.022 494.988,1096.977 484.705,1096.977 C480.227,1096.977 476.13,1096.016 472.896,1094.399 C472.127,1091.925 469.841,1089.919 466.801,1088.885 L466.696,1088.885 C466.315,1087.925 466.033,1086.979 466.033,1085.927 C466.033,1079.735 474.424,1074.789 484.705,1074.789" fill="#BEAC96"/>
      <path d="M483.178,1181.167 L420.798,1183.445 C420.798,1183.445 414.412,1159.833 378.506,1159.172 C342.696,1158.598 344.418,1189.257 344.418,1189.257 L236.885,1186.405 C236.885,1186.405 237.467,1153.448 206.224,1151.063 C174.981,1148.786 165.742,1183.445 165.742,1183.445 C165.742,1183.445 159.656,1180.212 157.74,1178.215 C155.743,1176.308 153.738,1185.363 153.738,1185.363 C153.738,1185.363 130.798,1112.604 132.414,1110.599 C133.933,1108.593 143.464,1113.354 143.464,1113.354 C143.464,1113.354 145.453,1103.073 147.838,1101.156 C150.223,1099.161 161.273,1108.214 161.273,1108.214 C161.273,1108.214 160.885,1099.54 164.408,1098.787 C168.03,1097.922 175.555,1105.457 175.555,1105.457 C175.555,1105.457 209.078,1005.927 220.701,1004.786 C232.221,1003.646 366.412,1000.211 378.506,1010.024 C390.695,1019.829 418.987,1108.302 418.987,1108.302 C418.987,1108.302 461.271,1110.025 466.422,1114.115 C469.461,1116.5 474.795,1139.262 478.602,1157.734 L458.029,1159.172 L459.275,1174.303 L481.941,1174.303 C482.701,1178.5 483.178,1181.167 483.178,1181.167 M303.361,1094.981 L388.99,1097.349 C388.99,1097.349 371.555,1025.068 366.412,1025.068 C361.175,1025.068 306.224,1024.502 306.224,1024.502 z M280.794,1096.21 L287.18,1024.502 C287.18,1024.502 231.08,1023.927 228.219,1024.502 C225.648,1024.979 210.031,1064.877 206.029,1075.161 L201.552,1074.79 C201.552,1074.79 188.319,1104.309 191.182,1105.457 C194.026,1106.598 216.596,1105.457 216.596,1105.457 L217.937,1096.21 z M154.982,1174.693 C154.982,1174.693 162.89,1124.502 162.032,1117.356 C162.032,1117.356 154.127,1152.115 154.127,1163.641 C153.843,1157.927 151.839,1122.594 143.086,1119.36 C143.086,1119.36 153.738,1172.687 154.982,1174.693" fill="#245B47"/>
      <path d="M481.941,1174.303 L459.275,1174.303 L458.029,1159.171 L478.602,1157.733 C479.935,1164.119 481.076,1170.019 481.941,1174.303" fill="#D51F46"/>
      <path d="M472.896,1094.4 C473.082,1094.981 473.179,1095.547 473.179,1096.21 C473.179,1100.59 468.417,1104.124 462.509,1104.124 C456.607,1104.124 451.742,1100.59 451.742,1096.21 C451.742,1091.837 456.607,1088.303 462.509,1088.303 C464.029,1088.303 465.371,1088.498 466.696,1088.885 L466.801,1088.885 C467.747,1091.166 469.945,1093.066 472.896,1094.4" fill="#BEAC96"/>
      <path d="M472.896,1094.399 C469.945,1093.065 467.747,1091.165 466.801,1088.885 C469.841,1089.919 472.127,1091.925 472.896,1094.399" fill="#BEAC96"/>
      <path d="M467.649,1056.884 C467.649,1056.884 439.082,1096.21 423.66,1097.454 C423.66,1097.454 446.228,1058.119 467.649,1056.884" fill="#17503E"/>
      <path d="M382.894,1169.356 C397.08,1169.356 408.599,1179.833 408.599,1192.791 C408.599,1205.642 397.08,1216.215 382.894,1216.215 C368.701,1216.215 357.182,1205.642 357.182,1192.791 C357.182,1179.833 368.701,1169.356 382.894,1169.356" fill="#343534"/>
      <path d="M388.99,1097.349 L303.361,1094.981 L306.224,1024.502 C306.224,1024.502 361.175,1025.068 366.412,1025.068 C371.555,1025.068 388.99,1097.349 388.99,1097.349" fill="#6BC2BF"/>
      <path d="M287.18,1024.503 L280.794,1096.211 L217.937,1096.211 L220.701,1076.495 L206.029,1075.161 C210.031,1064.878 225.648,1024.979 228.219,1024.503 C231.08,1023.928 287.18,1024.503 287.18,1024.503" fill="#6BC2BF"/>
      <path d="M201.269,1166.123 C215.56,1166.123 227.079,1176.6 227.079,1189.541 C227.079,1202.499 215.56,1212.976 201.269,1212.976 C187.082,1212.976 175.555,1202.499 175.555,1189.541 C175.555,1176.6 187.082,1166.123 201.269,1166.123" fill="#343534"/>
      <path d="M217.937,1096.211 L216.596,1105.457 C216.596,1105.457 194.026,1106.598 191.182,1105.457 C188.319,1104.31 201.552,1074.79 201.552,1074.79 L206.029,1075.161 L220.701,1076.495 z" fill="#17503E"/>
      <path d="M147.457,1042.6 C172.41,1052.115 173.559,1096.21 173.559,1096.21 C158.128,1075.928 147.457,1042.6 147.457,1042.6" fill="#17503E"/>
      <path d="M161.273,1196.025 C165.652,1197.648 173.17,1205.933 173.17,1205.933 C173.17,1205.933 166.025,1212.693 136.795,1205.933 C136.795,1205.933 156.89,1194.505 161.273,1196.025" fill="#245B47"/>
      <path d="M154.127,1163.641 C154.127,1152.115 162.032,1117.356 162.032,1117.356 C162.89,1124.502 154.982,1174.693 154.982,1174.693 C153.738,1172.687 143.086,1119.36 143.086,1119.36 C151.839,1122.594 153.843,1157.927 154.127,1163.641" fill="#17503E"/>
      <path d="M140.692,1165.161 L150.223,1188.119 L143.836,1190.121 C143.836,1190.121 124.121,1178.693 129.269,1170.691 C134.411,1162.786 140.692,1165.161 140.692,1165.161" fill="#245B47"/>
      <path d="M119.562,1048.688 C118.414,1048.776 117.645,1048.97 117.645,1048.97 C117.645,1048.97 118.414,1048.97 119.562,1048.688 M119.748,1048.688 C123.652,1048.307 131.55,1048.59 132.689,1056.973 C134.889,1071.927 108.133,1080.778 99.361,1072.784 C90.705,1064.877 102.601,1054.589 102.601,1054.589 C85.935,1060.119 53.367,1060.119 52.607,1043.44 C51.75,1026.781 70.795,1019.643 70.795,1019.643 C45.462,1019.643 16.887,1007.737 14.502,987.924 C12.135,968.014 21.647,947.443 73.172,942.69 C124.791,937.928 146.98,952.211 147.838,975.161 C148.605,998.206 96.984,1009.354 96.984,1009.354 C96.984,1009.354 124.791,1006.12 129.554,1023.635 C134.985,1043.353 124.412,1047.742 119.748,1048.688" fill="#A6937F"/>
      <path d="M135.551,1078.411 C141.469,1078.411 146.221,1081.352 146.221,1085.07 C146.221,1088.781 141.469,1091.836 135.551,1091.836 C129.554,1091.836 124.791,1088.781 124.791,1085.07 C124.791,1081.352 129.554,1078.411 135.551,1078.411" fill="#A6937F"/>
      <path d="M111.082,1199.646 C112.222,1198.021 136.795,1197.649 136.795,1197.649 C136.795,1197.649 111.453,1208.311 107.461,1208.311 C103.557,1208.311 109.837,1201.165 111.082,1199.646" fill="#245B47"/>
      <path d="M1184.894,206.347 L1113.255,252.905 L1134.884,339.067 L1056.312,295.983 L1029.793,369.371 L977.829,287.855 L907.174,334.421 L918.92,234.212 L846.312,171.388 L925.769,155.019 L906.191,63.059 L975.87,102.647 L1018.047,14.168 L1053.376,114.265 L1134.884,71.186 L1107.38,164.427 z" fill="#F7C024"/>
      <path d="M1284.748,334.225 L1268.734,331.477 L1269.452,318.71 L1284.218,319.974 C1284.4,325.566 1284.664,330.54 1284.748,334.225" fill="#AB2430"/>
      <path d="M1215.523,317.757 C1225.58,319.55 1232.521,329.685 1231.189,340.461 C1229.857,351.337 1220.601,358.624 1210.634,356.823 C1200.667,355.029 1193.628,344.895 1194.975,334.02 C1196.306,323.251 1205.564,315.955 1215.523,317.757" fill="#343534"/>
      <path d="M1227.449,258.415 L1167.472,245.745 L1176.903,187.251 C1176.903,187.251 1215.523,194.539 1219.177,195.273 C1222.826,195.909 1227.449,258.415 1227.449,258.415" fill="#6BC2BF"/>
      <path d="M1122.002,177.435 C1124.054,177.315 1163.476,184.821 1163.476,184.821 L1151.458,243.944 L1107.23,236.028 L1111.234,219.983 L1101.093,217.024 C1105.005,208.79 1120.134,177.534 1122.002,177.435" fill="#6BC2BF"/>
      <path d="M1088.189,292.411 C1098.162,294.106 1105.187,304.353 1103.763,315.115 C1102.424,325.892 1093.177,333.278 1083.201,331.477 C1073.241,329.685 1066.21,319.444 1067.543,308.675 C1068.966,297.905 1078.13,290.625 1088.189,292.411" fill="#343534"/>
      <path d="M1101.093,217.024 L1111.234,219.983 L1107.23,236.028 L1105.368,243.634 C1105.368,243.634 1089.339,241.734 1087.394,240.463 C1085.525,239.093 1097.982,216.185 1097.982,216.185 z" fill="#AB2430"/>
      <path d="M1227.449,258.415 C1227.449,258.415 1222.826,195.909 1219.177,195.273 C1215.523,194.539 1176.903,187.251 1176.903,187.251 L1167.472,245.745 z M1118.802,160.112 C1127.081,160.642 1221.759,174.468 1229.32,184.186 C1236.788,193.903 1247.384,271.296 1247.384,271.296 C1247.384,271.296 1276.93,278.046 1280.124,282.072 C1282.083,284.388 1283.416,304.231 1284.218,319.974 L1269.452,318.71 L1268.734,331.477 L1284.748,334.225 C1284.847,337.926 1284.93,340.135 1284.93,340.135 L1240.702,334.338 C1240.702,334.338 1238.749,313.745 1213.562,308.772 C1188.392,303.823 1186.431,329.578 1186.431,329.578 L1111.06,313.745 C1111.06,313.745 1114.888,286.287 1093.177,280.377 C1071.464,274.565 1061.314,302.446 1061.314,302.446 L1011.842,292.63 C1011.842,292.524 1011.751,292.199 1011.569,291.774 C1011.842,290.935 1012.288,289.459 1012.818,287.56 L1032.041,291.465 L1034.001,284.388 L1038.542,267.814 L1020.833,263.804 C1026.698,247.645 1034.447,231.071 1040.668,232.122 C1052.421,234.227 1076.45,238.457 1076.45,238.457 C1076.45,238.457 1110.522,159.582 1118.802,160.112 M1163.476,184.821 C1163.476,184.821 1124.054,177.315 1122.002,177.435 C1120.134,177.534 1105.005,208.79 1101.093,217.024 L1097.982,216.185 C1097.982,216.185 1085.525,239.093 1087.394,240.463 C1089.339,241.734 1105.368,243.634 1105.368,243.634 L1107.23,236.028 L1151.458,243.944 z" fill="#D51F46"/>
      <path d="M1038.542,267.814 L1034.001,284.388 L1015.308,279.848 C1016.739,275.095 1018.608,269.495 1020.833,263.804 z" fill="#CBCCCB"/>
      <path d="M1012.915,287.347 C1013.529,285.341 1014.331,282.806 1015.308,279.848 L1034.001,284.388 L1032.041,291.465 L1012.818,287.56 C1012.915,287.56 1012.915,287.454 1012.915,287.347" fill="#CBCCCB"/>
      <path d="M1010.238,287.03 C1010.328,287.347 1010.419,287.658 1010.509,287.87 L991.286,291.669 L989.417,284.706 L1008.013,280.165 C1008.905,282.806 1009.616,285.131 1010.238,287.03" fill="#CBCCCB"/>
      <path d="M1008.013,280.165 L989.417,284.706 L984.884,268.026 L1002.585,264.016 C1004.636,269.714 1006.597,275.412 1008.013,280.165" fill="#CBCCCB"/>
      <path d="M935.228,292.63 C945.189,290.828 954.452,298.117 955.784,308.991 C957.116,319.763 950.175,329.903 940.118,331.696 C930.158,333.491 920.896,326.202 919.572,315.434 C918.223,304.558 925.171,294.416 935.228,292.63" fill="#343534"/>
      <path d="M916.181,236.347 L912.086,220.196 L922.235,217.227 L925.353,216.389 C925.353,216.389 937.81,239.298 935.933,240.675 C933.98,241.938 918.058,243.838 918.058,243.838 z" fill="#007AB5"/>
      <path d="M901.324,177.746 C903.194,177.844 918.322,209.002 922.235,217.227 L912.086,220.196 L916.181,236.347 L871.876,244.164 L859.859,185.133 C859.859,185.133 899.28,177.64 901.324,177.746" fill="#6BC2BF"/>
      <path d="M846.425,187.456 L855.939,245.95 L795.968,258.627 C795.968,258.627 800.509,196.113 804.157,195.478 C807.796,194.85 846.425,187.456 846.425,187.456" fill="#6BC2BF"/>
      <path d="M807.796,317.976 C817.772,316.175 827.02,323.56 828.359,334.338 C829.692,345.1 822.759,355.347 812.7,357.035 C802.726,358.828 793.562,351.548 792.138,340.77 C790.807,329.903 797.837,319.763 807.796,317.976" fill="#343534"/>
      <path d="M855.939,245.95 L846.425,187.456 C846.425,187.456 807.796,194.85 804.157,195.478 C800.509,196.113 795.968,258.627 795.968,258.627 z M904.525,160.316 C912.798,159.899 946.884,238.669 946.884,238.669 C946.884,238.669 970.913,234.445 982.749,232.335 C988.887,231.275 996.621,247.849 1002.585,264.016 L984.884,268.026 L989.417,284.706 L991.286,291.669 L1010.509,287.87 C1011.039,289.672 1011.402,290.935 1011.569,291.774 C1011.486,292.199 1011.402,292.524 1011.402,292.524 L1011.842,292.63 C1011.932,292.729 1011.932,292.834 1011.932,292.834 L962.012,302.657 C962.012,302.657 951.871,274.891 930.158,280.687 C908.446,286.5 912.267,313.949 912.267,313.949 L836.987,329.797 C836.987,329.797 834.944,304.027 809.757,308.991 C784.57,313.949 782.617,334.55 782.617,334.55 L738.48,340.461 C738.48,340.461 738.572,338.243 738.661,334.55 L754.585,331.696 L753.873,318.914 L739.191,320.291 C739.993,304.558 741.333,284.706 743.196,282.277 C746.404,278.266 775.943,271.613 775.943,271.613 C775.943,271.613 786.53,194.214 794.099,184.398 C801.575,174.681 896.337,160.846 904.525,160.316 M922.235,217.227 C918.322,209.002 903.194,177.844 901.324,177.746 C899.28,177.64 859.859,185.133 859.859,185.133 L871.876,244.164 L916.181,236.347 L918.058,243.838 C918.058,243.838 933.98,241.938 935.933,240.675 C937.81,239.298 925.353,216.389 925.353,216.389 z" fill="#005C87"/>
      <path d="M753.873,318.914 L754.585,331.696 L738.661,334.55 C738.752,330.849 739.011,325.892 739.19,320.291 z" fill="#D51F46"/>
      <path d="M1189.511,1196.219 L1115.965,1244.022 L1138.164,1332.485 L1057.495,1288.249 L1030.276,1363.597 L976.918,1279.905 L904.375,1327.713 L916.442,1224.829 L841.887,1160.329 L923.474,1143.521 L903.373,1049.106 L974.905,1089.751 L1018.208,998.911 L1054.48,1101.679 L1138.164,1057.452 L1109.935,1153.18 z" fill="#F7C024"/>
      <path d="M1034.588,1276.346 L1039.25,1259.329 L1021.068,1255.211 C1027.097,1238.621 1035.047,1221.605 1041.441,1222.685 C1053.5,1224.845 1078.163,1229.189 1078.163,1229.189 C1078.163,1229.189 1113.16,1148.207 1121.653,1148.751 C1130.154,1149.294 1227.359,1163.491 1235.121,1173.468 C1242.798,1183.445 1253.668,1262.903 1253.668,1262.903 C1253.668,1262.903 1284.003,1269.834 1287.29,1273.967 C1289.303,1276.346 1290.67,1296.719 1291.494,1312.881 L1276.326,1311.583 L1275.596,1324.692 L1292.038,1327.512 C1292.131,1331.312 1292.224,1333.58 1292.224,1333.58 L1246.815,1327.629 C1246.815,1327.629 1244.81,1306.487 1218.951,1301.381 C1193.1,1296.299 1191.088,1322.742 1191.088,1322.742 L1113.712,1306.487 C1113.712,1306.487 1117.636,1278.295 1095.343,1272.228 C1073.05,1266.26 1062.638,1294.885 1062.638,1294.885 L1011.845,1284.807 C1011.845,1284.698 1011.751,1284.365 1011.565,1283.928 C1011.845,1283.067 1012.295,1281.551 1012.847,1279.601 L1032.575,1283.611 z M1171.631,1236.67 L1233.201,1249.678 C1233.201,1249.678 1228.454,1185.504 1224.709,1184.852 C1220.964,1184.098 1181.313,1176.616 1181.313,1176.616 z M1155.181,1234.821 L1167.521,1174.121 C1167.521,1174.121 1127.046,1166.412 1124.94,1166.537 C1123.02,1166.638 1107.496,1198.729 1103.478,1207.183 L1100.278,1206.321 C1100.278,1206.321 1087.488,1229.841 1089.407,1231.247 C1091.411,1232.552 1107.861,1234.502 1107.861,1234.502 L1109.78,1226.694 z" fill="#245B47"/>
      <path d="M1292.038,1327.512 L1275.596,1324.692 L1276.326,1311.583 L1291.494,1312.881 C1291.68,1318.623 1291.952,1323.728 1292.038,1327.512" fill="#AB2430"/>
      <path d="M1220.964,1310.604 C1231.29,1312.446 1238.408,1322.85 1237.04,1333.914 C1235.673,1345.08 1226.17,1352.564 1215.937,1350.714 C1205.711,1348.872 1198.485,1338.469 1199.86,1327.303 C1201.235,1316.246 1210.731,1308.754 1220.964,1310.604" fill="#343534"/>
      <path d="M1233.201,1249.678 L1171.631,1236.67 L1181.313,1176.616 C1181.313,1176.616 1220.964,1184.098 1224.709,1184.852 C1228.454,1185.504 1233.201,1249.678 1233.201,1249.678" fill="#6BC2BF"/>
      <path d="M1167.521,1174.121 L1155.181,1234.821 L1109.78,1226.694 L1113.89,1210.221 L1103.478,1207.183 C1107.496,1198.729 1123.02,1166.638 1124.94,1166.537 C1127.046,1166.412 1167.521,1174.121 1167.521,1174.121" fill="#6BC2BF"/>
      <path d="M1109.78,1226.694 L1107.861,1234.502 C1107.861,1234.502 1091.411,1232.552 1089.407,1231.247 C1087.488,1229.841 1100.278,1206.321 1100.278,1206.321 L1103.478,1207.183 L1113.89,1210.221 z" fill="#17503E"/>
      <path d="M1090.23,1284.582 C1100.464,1286.323 1107.682,1296.844 1106.214,1307.893 C1104.846,1318.957 1095.343,1326.541 1085.11,1324.692 C1074.876,1322.85 1067.665,1312.336 1069.033,1301.28 C1070.494,1290.223 1079.904,1282.748 1090.23,1284.582" fill="#343534"/>
      <path d="M1039.25,1259.329 L1034.588,1276.346 L1015.404,1271.683 C1016.865,1266.804 1018.877,1261.053 1021.068,1255.211 z" fill="#CBCCCB"/>
      <path d="M1012.932,1279.384 C1013.577,1277.325 1014.393,1274.721 1015.404,1271.683 L1034.588,1276.346 L1032.575,1283.611 L1012.847,1279.601 C1012.932,1279.601 1012.932,1279.493 1012.932,1279.384" fill="#CBCCCB"/>
      <path d="M988.822,1276.672 L990.74,1283.821 L1010.469,1279.92 C1011.021,1281.77 1011.386,1283.067 1011.565,1283.928 C1011.471,1284.365 1011.386,1284.698 1011.386,1284.698 L1011.845,1284.807 C1011.938,1284.909 1011.938,1285.016 1011.938,1285.016 L960.678,1295.103 C960.678,1295.103 950.266,1266.594 927.973,1272.545 C905.68,1278.514 909.612,1306.696 909.612,1306.696 L832.314,1322.967 C832.314,1322.967 830.216,1296.51 804.365,1301.606 C778.506,1306.696 776.501,1327.847 776.501,1327.847 L731.185,1333.914 C731.185,1333.914 731.278,1331.639 731.371,1327.847 L747.72,1324.916 L746.99,1311.793 L731.915,1313.207 C732.74,1297.053 734.107,1276.672 736.026,1274.177 C739.313,1270.059 769.648,1263.23 769.648,1263.23 C769.648,1263.23 780.518,1183.764 788.28,1173.686 C795.958,1163.708 893.256,1149.505 901.663,1148.961 C910.164,1148.534 945.153,1229.406 945.153,1229.406 C945.153,1229.406 969.816,1225.07 981.968,1222.902 C988.27,1221.815 996.219,1238.831 1002.342,1255.428 L984.159,1259.547 z M933.91,1231.465 C935.829,1230.051 923.039,1206.531 923.039,1206.531 L919.846,1207.393 C915.821,1198.948 900.296,1166.957 898.377,1166.856 C896.271,1166.747 855.796,1174.44 855.796,1174.44 L868.135,1235.047 L913.629,1227.021 L915.549,1234.713 C915.549,1234.713 931.905,1232.762 933.91,1231.465 M851.779,1236.881 L842.004,1176.826 C842.004,1176.826 802.352,1184.416 798.607,1185.062 C794.862,1185.714 790.2,1249.896 790.2,1249.896 z" fill="#005C87"/>
      <path d="M1010.198,1279.057 C1010.291,1279.384 1010.384,1279.702 1010.469,1279.92 L990.74,1283.821 L988.822,1276.672 L1007.912,1272.01 C1008.83,1274.721 1009.553,1277.108 1010.198,1279.057" fill="#CBCCCB"/>
      <path d="M1007.912,1272.01 L988.822,1276.672 L984.159,1259.547 L1002.342,1255.428 C1004.439,1261.279 1006.452,1267.129 1007.912,1272.01" fill="#CBCCCB"/>
      <path d="M954.283,1301.606 C955.651,1312.663 948.533,1323.076 938.206,1324.916 C927.973,1326.758 918.478,1319.276 917.103,1308.219 C915.727,1297.053 922.852,1286.641 933.179,1284.807 C943.413,1282.957 952.915,1290.441 954.283,1301.606" fill="#343534"/>
      <path d="M913.629,1227.021 L909.426,1210.44 L919.846,1207.393 L923.039,1206.531 C923.039,1206.531 935.829,1230.051 933.91,1231.465 C931.905,1232.762 915.549,1234.713 915.549,1234.713 z" fill="#007AB5"/>
      <path d="M919.846,1207.393 L909.426,1210.44 L913.629,1227.021 L868.135,1235.047 L855.796,1174.44 C855.796,1174.44 896.271,1166.747 898.377,1166.856 C900.296,1166.957 915.821,1198.948 919.846,1207.393" fill="#6BC2BF"/>
      <path d="M842.004,1176.826 L851.779,1236.881 L790.2,1249.896 C790.2,1249.896 794.862,1185.714 798.607,1185.062 C802.352,1184.416 842.004,1176.826 842.004,1176.826" fill="#6BC2BF"/>
      <path d="M823.456,1327.629 C824.831,1338.678 817.699,1349.198 807.38,1350.932 C797.146,1352.774 787.737,1345.298 786.276,1334.234 C784.908,1323.076 792.119,1312.663 802.352,1310.83 C812.586,1308.981 822.081,1316.565 823.456,1327.629" fill="#343534"/>
      <path d="M746.99,1311.793 L747.72,1324.916 L731.372,1327.847 C731.458,1324.046 731.73,1318.957 731.916,1313.207 z" fill="#D51F46"/>
      <path d="M1186.437,723.729 L1089.837,776.651 L1119.002,874.573 L1013.036,825.617 L977.28,909.017 L907.192,816.382 L811.915,869.295 L827.758,755.417 L729.836,684.017 L837.002,665.417 L810.593,560.895 L904.558,605.895 L961.437,505.338 L1009.071,619.095 L1119.002,570.139 L1081.915,676.095 z" fill="#F7C024"/>
      <path d="M1131.265,718.901 L1114.942,772.901 C1114.942,772.901 1152.508,776.979 1191.03,781.77 L1191.143,781.77 C1225.109,785.867 1259.665,790.77 1269.508,793.901 C1269.508,793.901 1270.943,706.901 1256.665,695.736 C1242.508,684.458 1144.221,676.179 1144.221,676.179 z M1055.421,757.179 C1066.942,759.58 1079.786,762.458 1085.908,764.501 C1083.03,773.614 1080.508,782.614 1080.508,784.179 C1080.508,787.179 1090.942,787.901 1096.942,787.901 C1102.942,787.901 1110.508,751.179 1109.665,746.614 C1109.421,744.58 1106.543,743.501 1103.308,743.257 C1107.03,728.257 1119.265,677.501 1117.942,671.736 C1116.508,665.023 1093.343,662.736 1084.699,662.614 C1090.464,653.979 1095.143,648.458 1097.665,648.458 C1108.942,648.458 1268.665,671.736 1273.221,683.736 C1277.665,695.736 1300.943,776.614 1291.221,875.736 L1262.665,877.179 C1262.665,877.179 1279.943,841.179 1256.665,839.736 C1233.508,838.179 1219.943,859.901 1209.508,876.458 L1068.508,859.901 C1068.508,859.901 1081.221,821.736 1059.508,818.614 C1037.665,815.736 1021.221,839.736 1009.942,856.901 L997.942,853.901 L994.221,846.458 L988.221,852.458 L983.665,845.736 L973.942,850.179 L958.221,844.901 L980.665,755.736 L994.221,771.458 L1002.508,754.901 L1009.221,763.179 L1016.665,753.458 L1029.508,761.736 C1029.508,761.736 1031.187,758.501 1033.942,753.101 C1037.908,753.823 1046.308,755.389 1055.421,757.179 M1000.942,816.458 C1000.942,816.458 1015.942,787.901 1011.508,769.901 C1011.508,769.901 1000.942,805.179 1000.942,816.458 M987.508,829.901 C987.508,829.901 999.508,796.179 994.221,780.458 C994.221,780.458 987.508,814.179 987.508,829.901" fill="#245B47"/>
      <path d="M1256.665,695.736 C1270.943,706.901 1269.508,793.901 1269.508,793.901 C1259.665,790.77 1225.109,785.867 1191.143,781.77 L1191.03,781.77 L1178.665,767.736 L1217.665,744.458 L1156.221,742.901 L1149.508,703.901 L1131.265,718.901 L1144.221,676.179 C1144.221,676.179 1242.508,684.458 1256.665,695.736" fill="#6BC2BF"/>
      <path d="M1246.221,853.179 C1267.943,853.901 1263.508,895.901 1236.508,895.901 C1209.508,895.901 1224.508,852.458 1246.221,853.179" fill="#343534"/>
      <path d="M1217.665,744.458 L1178.665,767.736 L1191.03,781.77 C1152.508,776.979 1114.942,772.901 1114.942,772.901 L1131.265,718.901 L1149.508,703.901 L1156.221,742.901 z" fill="#ABD9D4"/>
      <path d="M1117.942,671.736 C1119.265,677.501 1107.03,728.257 1103.308,743.257 C1099.587,742.77 1095.386,743.389 1093.221,744.458 C1092.386,744.823 1089.03,754.658 1085.908,764.501 C1079.786,762.458 1066.942,759.58 1055.421,757.179 L1054.221,741.458 L1086.508,730.901 L1067.665,718.901 L1084.942,694.179 L1065.143,694.77 C1071.977,682.545 1078.821,671.135 1084.699,662.614 C1093.343,662.736 1116.508,665.023 1117.942,671.736" fill="#6BC2BF"/>
      <path d="M1125.508,527.736 C1125.508,527.736 1107.508,568.179 1098.508,571.179 C1090.821,573.702 1062.621,563.614 1054.699,560.614 C1058.665,552.945 1062.386,545.614 1065.864,539.023 C1071.508,541.77 1087.942,549.101 1091.665,547.179 C1096.221,544.901 1108.221,521.736 1108.221,521.736 C1108.221,521.736 1120.221,517.179 1125.508,527.736" fill="#777776"/>
      <path d="M1085.908,764.501 C1089.03,754.658 1092.386,744.823 1093.221,744.458 C1095.386,743.389 1099.587,742.77 1103.308,743.257 C1106.543,743.501 1109.421,744.58 1109.665,746.614 C1110.508,751.179 1102.942,787.901 1096.942,787.901 C1090.942,787.901 1080.508,787.179 1080.508,784.179 C1080.508,782.614 1083.03,773.614 1085.908,764.501" fill="#17503E"/>
      <path d="M1105.221,471.458 C1107.508,476.614 1099.942,487.901 1095.508,489.458 C1090.942,490.901 1050.508,478.179 1049.665,475.179 C1048.942,472.179 1058.908,460.901 1063.221,459.458 C1067.665,457.901 1102.942,466.179 1105.221,471.458" fill="#777776"/>
      <path d="M996.03,575.614 C999.508,569.135 1002.864,562.901 1006.109,556.901 C1028.065,516.345 1044.265,487.77 1048.942,481.179 L1089.508,495.458 C1089.508,495.458 1079.421,513.213 1065.864,539.023 C1062.386,545.614 1058.665,552.945 1054.699,560.614 C1038.265,593.389 1019.786,632.979 1008.508,666.458 C998.665,695.867 989.665,722.736 981.265,750.101 L967.942,746.614 L982.221,711.458 L977.665,685.179 L976.221,711.458 L961.942,742.179 L946.942,742.901 L946.221,726.458 L933.508,751.179 L962.665,751.179 L979.942,754.545 C978.977,757.658 978.03,760.77 977.187,763.901 L976.942,763.901 L969.508,760.179 L949.221,771.458 L949.942,796.179 L931.221,787.179 L945.508,801.458 L921.508,819.458 L953.665,805.179 L955.221,777.458 L970.942,764.614 L975.752,768.823 C965.908,802.301 957.03,837.458 948.508,879.458 C948.508,879.458 925.221,893.736 887.665,878.614 C887.665,878.614 918.508,724.179 961.221,641.736 C973.464,618.101 985.221,595.77 996.03,575.614" fill="#CBCCCB"/>
      <path d="M1086.508,730.901 L1054.221,741.458 L1055.421,757.179 C1046.308,755.389 1037.908,753.823 1033.942,753.101 C1040.308,740.736 1052.786,716.614 1065.143,694.77 L1084.942,694.179 L1067.665,718.901 z" fill="#ABD9D4"/>
      <path d="M1048.942,832.179 C1070.786,832.901 1066.221,874.901 1039.221,874.901 C1012.221,874.901 1027.221,831.458 1048.942,832.179" fill="#343534"/>
      <path d="M1034.665,673.179 C1036.942,680.614 1028.665,753.458 1028.665,753.458 L1019.665,750.458 L1024.942,676.179 L1014.508,670.901 C1014.508,670.901 1032.508,665.736 1034.665,673.179" fill="#17503E"/>
      <path d="M1011.508,769.901 C1015.942,787.901 1000.942,816.458 1000.942,816.458 C1000.942,805.179 1011.508,769.901 1011.508,769.901" fill="#17503E"/>
      <path d="M1006.109,556.901 C1002.864,562.901 999.508,569.135 996.03,575.614 C962.786,564.101 965.665,555.945 964.221,548.614 C962.665,541.179 979.221,513.458 979.221,513.458 C989.665,508.179 995.665,520.179 995.665,520.179 C995.665,520.179 989.665,537.458 988.221,542.614 C986.665,547.901 988.221,549.458 1006.109,556.901" fill="#777776"/>
      <path d="M994.221,780.458 C999.508,796.179 987.508,829.901 987.508,829.901 C987.508,814.179 994.221,780.458 994.221,780.458" fill="#17503E"/>
      <path d="M977.665,685.179 L982.221,711.458 L967.942,746.614 L981.265,750.101 C980.786,751.545 980.421,753.101 979.942,754.545 L962.665,751.179 L933.508,751.179 L946.221,726.458 L946.942,742.901 L961.942,742.179 L976.221,711.458 z" fill="#777776"/>
      <path d="M977.187,763.901 C976.587,765.58 976.109,767.135 975.752,768.823 L970.942,764.614 L955.221,777.458 L953.665,805.179 L921.508,819.458 L945.508,801.458 L931.221,787.179 L949.942,796.179 L949.221,771.458 L969.508,760.179 L976.942,763.901 z" fill="#777776"/>
      <path d="M470.773,465.78 L374.173,518.692 L403.329,616.624 L297.364,567.659 L261.607,651.059 L191.529,558.425 L96.251,611.347 L112.085,497.468 L14.173,426.059 L121.329,407.468 L94.929,302.946 L188.885,347.946 L245.773,247.38 L293.407,361.137 L403.329,312.181 L366.251,418.137 z" fill="#F7C024"/>
      <path d="M584.201,327.255 C584.201,330.875 539.923,469.832 532.245,493.699 C528.757,492.875 525.401,492.145 523.001,491.665 C533.079,456.743 567.157,338.186 567.157,332.186 C567.157,325.223 377.201,262.223 318.157,239.186 C324.157,237.255 584.201,323.186 584.201,327.255" fill="#777776"/>
      <path d="M359.201,273.255 L544.245,340.222 L543.157,346.222 z" fill="#777776"/>
      <path d="M535.245,366.255 L535.245,373.222 L355.245,298.222 z" fill="#777776"/>
      <path d="M553.245,504.255 C553.245,511.222 544.245,535.222 536.201,533.186 C522.757,529.831 512.323,521.065 509.801,518.777 C509.445,518.431 509.201,518.186 509.201,518.186 C509.201,518.186 516.157,491.186 519.157,491.186 C519.635,491.186 521.079,491.431 523.001,491.665 C525.401,492.144 528.757,492.874 532.245,493.699 C541.835,496.099 553.245,499.942 553.245,504.255" fill="#EFEBD8"/>
      <path d="M492.157,403.222 C492.157,411.255 485.201,513.255 485.201,513.255 L273.157,442.222 C273.157,442.222 336.157,354.255 342.157,355.222 C348.157,356.186 492.157,395.186 492.157,403.222" fill="#6BC2BF"/>
      <path d="M485.923,584.186 C483.757,589.831 481.723,594.874 480.157,598.699 L463.245,592.222 L471.157,577.222 z" fill="#DD672B"/>
      <path d="M474.157,553.222 L462.157,587.186 L429.157,574.222 L442.245,543.255 z" fill="#CBCCCB"/>
      <path d="M421.245,612.255 L450.157,621.255 C450.157,621.255 434.201,647.186 424.245,648.255 C414.157,649.222 406.245,636.255 406.245,633.255 C406.245,630.255 421.245,612.255 421.245,612.255" fill="#343534"/>
      <path d="M421.245,537.255 L418.479,548.777 L300.879,512.065 L304.245,503.186 z" fill="#CBCCCB"/>
      <path d="M418.479,548.777 L415.479,561.743 L295.835,525.03 L300.879,512.065 z" fill="#777776"/>
      <path d="M415.479,561.743 L413.201,571.222 L292.245,534.255 L295.835,525.03 z" fill="#CBCCCB"/>
      <path d="M377.201,580.223 L372.157,592.099 C350.445,585.744 327.635,579.031 306.523,572.909 L309.157,561.255 z" fill="#EFEBD8"/>
      <path d="M372.157,592.099 L368.201,601.222 L304.245,583.222 L306.523,572.909 C327.635,579.03 350.445,585.743 372.157,592.099" fill="#EFEBD8"/>
      <path d="M292.245,496.222 L282.157,532.222 L250.245,521.186 L258.157,486.255 z" fill="#CBCCCB"/>
      <path d="M258.157,486.255 L250.245,521.186 L282.157,532.222 L292.245,496.222 z M418.479,548.777 L421.245,537.255 L304.245,503.186 L300.879,512.065 L295.835,525.03 L292.245,534.255 L413.201,571.222 L415.479,561.743 z M462.157,587.186 L474.157,553.222 L442.245,543.255 L429.157,574.222 z M506.201,530.186 C504.879,535.831 494.079,563.777 485.923,584.186 L471.157,577.222 L463.245,592.222 L480.157,598.699 C479.323,600.874 478.601,602.543 478.114,603.874 C449.079,590.909 271.723,537.387 229.957,524.909 C230.323,523.099 230.923,520.699 231.401,517.831 L242.201,521.186 L249.157,504.255 L234.879,501.987 C239.923,478.587 246.523,447.255 247.245,444.255 C247.245,444.255 248.679,441.987 251.079,438.03 C266.679,413.186 324.045,322.465 335.201,324.255 C348.157,326.186 511.245,387.255 511.245,393.255 C511.245,398.3 509.079,486.874 507.157,519.03 C506.801,524.909 506.557,528.874 506.201,530.186 M485.201,513.255 C485.201,513.255 492.157,411.255 492.157,403.222 C492.157,395.186 348.157,356.186 342.157,355.222 C336.157,354.255 273.157,442.222 273.157,442.222 z" fill="#EFEBD8"/>
      <path d="M543.157,346.222 L544.245,340.222 L359.201,273.255 z M355.245,298.222 L535.245,373.222 L535.245,366.255 z M318.157,239.186 C377.201,262.222 567.157,325.222 567.157,332.186 C567.157,338.186 533.079,456.743 523.001,491.665 C521.079,491.431 519.635,491.186 519.157,491.186 C516.157,491.186 509.201,518.186 509.201,518.186 C509.201,518.186 509.445,518.431 509.801,518.777 L507.157,519.03 C509.079,486.874 511.245,398.3 511.245,393.255 C511.245,387.255 348.157,326.186 335.201,324.255 C324.045,322.465 266.679,413.186 251.079,438.03 L245.923,432.874 L250.245,411.255 C250.245,411.255 247.357,410.431 243.279,409.353 C254.801,381.255 312.757,240.987 318.157,239.186" fill="#CBCCCB"/>
      <path d="M242.201,591.255 L242.201,559.222 L263.201,564.255 C263.201,564.255 268.245,592.222 265.245,593.186 C262.245,594.255 242.201,595.222 242.201,591.255" fill="#343534"/>
      <path d="M249.157,504.255 L242.201,521.186 L231.401,517.831 C232.357,513.387 233.557,507.987 234.879,501.987 z" fill="#DD672B"/>
      <path d="M250.245,411.255 L245.923,432.874 L245.201,436.222 C245.201,436.222 215.201,439.222 210.157,433.222 C205.245,427.222 213.157,409.222 218.201,406.222 C221.557,404.186 235.001,407.186 243.279,409.353 C247.357,410.431 250.245,411.255 250.245,411.255" fill="#EFEBD8"/>
      <path d="M478.114,603.874 C480.757,604.942 482.201,605.777 482.201,606.255 C482.201,612.255 477.157,622.222 472.245,621.255 C470.079,620.777 424.245,607.353 372.157,592.099 L377.201,580.222 L309.157,561.255 L306.523,572.909 C260.323,559.353 221.679,548.065 218.201,547.222 C209.201,545.186 217.245,522.255 221.201,522.255 C221.201,522.255 224.323,523.222 229.957,524.909 C271.723,537.387 449.079,590.909 478.114,603.874" fill="#777776"/>
      <path d="M187.114,519.03 C187.835,519.03 188.323,519.987 188.323,521.065 C188.323,522.255 187.835,523.222 187.114,523.222 C186.401,523.222 185.923,522.255 185.923,521.065 C185.923,519.987 186.401,519.03 187.114,519.03" fill="#1A1919"/>
      <path d="M183.157,531.03 L186.401,537.144 L182.923,534.03 C182.923,534.03 180.523,538.353 180.523,537.621 C180.523,536.909 183.157,531.03 183.157,531.03" fill="#1A1919"/>
      <path d="M170.445,521.909 C171.157,521.909 171.635,522.875 171.635,524.065 C171.635,525.144 171.157,526.099 170.445,526.099 C169.723,526.099 169.245,525.144 169.245,524.065 C169.245,522.875 169.723,521.909 170.445,521.909" fill="#1A1919"/>
      <path d="M98.445,552.987 C102.635,552.03 107.201,551.065 112.245,550.222 C118.001,549.255 124.114,549.509 130.001,550.353 C118.114,554.431 101.679,560.186 97.245,560.186 C94.114,560.186 96.279,556.099 98.445,552.987" fill="#343534"/>
      <path d="M171.635,524.065 C171.635,522.874 171.157,521.909 170.445,521.909 C169.723,521.909 169.245,522.874 169.245,524.065 C169.245,525.144 169.723,526.099 170.445,526.099 C171.157,526.099 171.635,525.144 171.635,524.065 M186.401,537.144 L183.157,531.03 C183.157,531.03 180.523,536.909 180.523,537.621 C180.523,538.353 182.923,534.03 182.923,534.03 z M187.114,523.222 C187.835,523.222 188.323,522.255 188.323,521.065 C188.323,519.987 187.835,519.03 187.114,519.03 C186.401,519.03 185.923,519.987 185.923,521.065 C185.923,522.255 186.401,523.222 187.114,523.222 M173.201,493.222 C173.201,493.222 197.201,510.255 197.201,526.222 C197.201,542.186 182.201,546.255 182.201,546.255 C182.201,546.255 211.245,562.222 207.157,566.186 C203.445,570.03 184.357,559.465 182.323,558.387 C183.279,559.831 193.001,573.509 189.157,577.222 C185.201,581.186 168.157,563.186 168.157,563.186 C168.157,563.186 149.801,553.222 130.001,550.353 C124.114,549.509 118.001,549.255 112.245,550.222 C107.201,551.065 102.635,552.03 98.445,552.987 C81.635,557.3 71.557,562.353 69.157,559.222 C66.157,555.255 93.157,541.222 93.157,541.222 C93.157,541.222 90.157,466.222 103.245,466.222 C116.201,466.222 103.245,530.186 103.245,530.186 C129.279,527.3 150.757,533.3 152.923,533.909 C147.401,526.699 152.323,519.03 152.323,519.03 L156.157,495.03 L164.079,515.065 L173.201,512.186 z" fill="#343534"/>
      <path d="M1900.753,473.856 L1808.363,524.462 L1836.249,618.125 L1734.911,571.294 L1700.713,651.059 L1633.681,562.462 L1542.555,613.077 L1557.708,504.162 L1464.054,435.865 L1566.54,418.085 L1541.291,318.119 L1631.161,361.157 L1685.56,264.975 L1731.127,373.772 L1836.249,326.95 L1800.787,428.288 z" fill="#D51F46"/>
      <path d="M2009.237,341.368 C2009.237,344.829 1966.889,477.729 1959.537,500.558 C1956.21,499.769 1953,499.069 1950.705,498.612 C1960.344,465.212 1992.945,351.823 1992.945,346.085 C1992.945,339.423 1811.26,279.169 1754.798,257.138 C1760.537,255.29 2009.237,337.478 2009.237,341.368" fill="#17503E"/>
      <path d="M1992.945,346.085 C1992.945,351.823 1960.344,465.212 1950.705,498.612 C1948.867,498.388 1947.495,498.155 1947.037,498.155 C1944.168,498.155 1937.506,523.978 1937.506,523.978 C1937.506,523.978 1937.739,524.212 1938.08,524.543 L1935.561,524.784 C1937.39,494.03 1939.452,409.316 1939.452,404.491 C1939.452,398.753 1783.491,340.347 1771.09,338.499 C1760.42,336.786 1705.555,423.554 1690.635,447.315 L1685.703,442.384 L1689.828,421.707 C1689.828,421.707 1687.084,420.919 1683.184,419.888 C1694.195,393.015 1749.625,258.86 1754.798,257.138 C1811.26,279.169 1992.945,339.423 1992.945,346.085 M1969.991,359.509 L1971.014,353.77 L1794.044,289.722 z M1962.406,385.331 L1962.406,378.669 L1790.251,313.601 z" fill="#245B47"/>
      <path d="M1971.014,353.77 L1969.991,359.509 L1794.044,289.722 z" fill="#245B47"/>
      <path d="M1959.537,500.559 C1968.727,502.853 1979.621,506.528 1979.621,510.653 C1979.621,517.316 1971.014,540.271 1963.33,538.324 C1950.472,535.115 1940.492,526.732 1938.08,524.543 C1937.739,524.212 1937.506,523.979 1937.506,523.979 C1937.506,523.979 1944.168,498.155 1947.037,498.155 C1947.495,498.155 1948.867,498.388 1950.705,498.612 C1953,499.069 1956.21,499.77 1959.537,500.559" fill="#EFEBD8"/>
      <path d="M1962.406,378.669 L1962.406,385.331 L1790.251,313.601 z" fill="#245B47"/>
      <path d="M1935.561,524.784 C1935.211,530.281 1934.87,534.074 1934.637,535.454 C1933.373,540.853 1923.043,567.581 1915.243,587.101 L1901.129,580.44 L1893.544,594.786 L1909.737,600.981 C1908.93,603.061 1908.24,604.657 1907.783,605.931 C1880.005,593.53 1710.379,542.341 1670.434,530.407 C1670.783,528.676 1671.241,526.381 1671.814,523.638 L1682.144,526.847 L1688.806,510.653 L1675.141,508.485 C1679.965,486.104 1686.277,456.138 1686.958,453.269 C1686.958,453.269 1688.339,451.1 1690.635,447.315 C1705.555,423.554 1760.42,336.786 1771.09,338.499 C1783.491,340.347 1939.452,398.753 1939.452,404.491 C1939.452,409.316 1937.39,494.03 1935.561,524.784 M1847.869,565.636 L1850.738,553.235 L1853.375,542.215 L1741.474,509.632 L1738.265,518.124 L1733.449,530.523 L1729.997,539.346 L1845.69,574.701 z M1914.553,519.261 C1914.553,519.261 1921.214,421.707 1921.214,414.024 C1921.214,406.339 1783.491,369.038 1777.752,368.116 C1772.014,367.191 1711.759,451.323 1711.759,451.323 z M1892.521,589.97 L1903.999,557.485 L1873.459,547.954 L1860.96,577.571 z M1720.367,537.401 L1729.997,502.97 L1697.413,493.438 L1689.828,526.847 z" fill="#EFEBD8"/>
      <path d="M1921.214,414.024 C1921.214,421.707 1914.553,519.261 1914.553,519.261 L1711.759,451.323 C1711.759,451.323 1772.014,367.191 1777.752,368.116 C1783.491,369.038 1921.214,406.339 1921.214,414.024" fill="#6BC2BF"/>
      <path d="M1901.129,580.44 L1915.243,587.101 C1913.172,592.499 1911.226,597.323 1909.737,600.981 L1893.544,594.786 z" fill="#DD672B"/>
      <path d="M1907.783,605.931 C1910.302,606.952 1911.683,607.751 1911.683,608.208 C1911.683,613.946 1906.868,623.478 1902.152,622.554 C1900.089,622.097 1856.369,609.257 1806.444,594.669 L1811.26,583.31 L1746.19,565.169 L1743.662,576.315 C1699.476,563.225 1662.633,552.436 1659.19,551.747 C1650.582,549.801 1658.266,527.868 1662.059,527.868 C1662.059,527.868 1665.044,528.794 1670.434,530.407 C1710.379,542.341 1880.005,593.53 1907.783,605.931" fill="#777776"/>
      <path d="M1903.999,557.485 L1892.521,589.97 L1860.96,577.571 L1873.459,547.954 z" fill="#CBCCCB"/>
      <path d="M1853.375,613.946 L1881.045,622.555 C1881.045,622.555 1865.775,647.355 1856.244,648.378 C1846.614,649.302 1839.028,636.899 1839.028,634.031 C1839.028,631.161 1853.375,613.946 1853.375,613.946" fill="#343534"/>
      <path d="M1853.375,542.215 L1850.738,553.235 L1738.265,518.124 L1741.474,509.632 z" fill="#CBCCCB"/>
      <path d="M1850.738,553.236 L1847.869,565.637 L1733.449,530.523 L1738.265,518.125 z" fill="#777776"/>
      <path d="M1847.869,565.636 L1845.69,574.701 L1729.997,539.346 L1733.449,530.523 z" fill="#CBCCCB"/>
      <path d="M1811.26,583.31 L1806.444,594.669 C1785.669,588.59 1763.863,582.169 1743.662,576.315 L1746.19,565.169 z" fill="#EFEBD8"/>
      <path d="M1806.444,594.669 L1802.652,603.394 L1741.474,586.179 L1743.662,576.315 C1763.863,582.169 1785.669,588.59 1806.444,594.669" fill="#EFEBD8"/>
      <path d="M1729.997,502.97 L1720.367,537.401 L1689.828,526.847 L1697.413,493.438 z" fill="#CBCCCB"/>
      <path d="M1702.229,568.038 C1702.229,568.038 1707.043,594.786 1704.174,595.709 C1701.305,596.73 1682.144,597.655 1682.144,593.861 L1682.144,563.225 z" fill="#343534"/>
      <path d="M1683.184,419.888 C1687.084,420.919 1689.828,421.707 1689.828,421.707 L1685.703,442.384 L1685.013,445.585 C1685.013,445.585 1656.32,448.454 1651.505,442.716 C1646.789,436.978 1654.375,419.763 1659.19,416.894 C1662.409,414.946 1675.257,417.815 1683.184,419.888" fill="#EFEBD8"/>
      <path d="M1688.806,510.653 L1682.144,526.847 L1671.814,523.638 C1672.738,519.388 1673.886,514.224 1675.141,508.485 z" fill="#DD672B"/>
      <path d="M1624.875,562.426 C1625.799,563.808 1635.088,576.889 1631.421,580.44 C1627.628,584.231 1611.336,567.017 1611.336,567.017 C1611.336,567.017 1593.771,557.485 1574.834,554.741 C1569.212,553.935 1563.357,553.692 1557.843,554.616 C1553.028,555.424 1548.67,556.347 1544.653,557.262 C1528.585,561.386 1518.947,566.219 1516.651,563.225 C1513.782,559.431 1539.605,546.009 1539.605,546.009 C1539.605,546.009 1536.735,474.278 1549.235,474.278 C1561.636,474.278 1549.235,535.454 1549.235,535.454 C1574.152,532.694 1594.694,538.433 1596.757,539.015 C1591.476,532.12 1596.183,524.784 1596.183,524.784 L1599.859,501.831 L1607.427,520.993 L1616.151,518.239 L1616.151,500.101 C1616.151,500.101 1639.105,516.392 1639.105,531.663 C1639.105,546.932 1624.759,550.823 1624.759,550.823 C1624.759,550.823 1652.527,566.094 1648.636,569.886 C1645.077,573.561 1626.83,563.457 1624.875,562.426 M1630.614,526.731 C1630.614,525.7 1630.156,524.784 1629.466,524.784 C1628.775,524.784 1628.318,525.7 1628.318,526.731 C1628.318,527.868 1628.775,528.794 1629.466,528.794 C1630.156,528.794 1630.614,527.868 1630.614,526.731 M1628.775,542.108 L1625.682,536.262 C1625.682,536.262 1623.154,541.884 1623.154,542.565 C1623.154,543.265 1625.449,539.131 1625.449,539.131 z M1614.663,529.601 C1614.663,528.461 1614.205,527.538 1613.515,527.538 C1612.825,527.538 1612.358,528.461 1612.358,529.601 C1612.358,530.632 1612.825,531.545 1613.515,531.545 C1614.205,531.545 1614.663,530.632 1614.663,529.601" fill="#5D442C"/>
      <path d="M1629.466,524.784 C1630.156,524.784 1630.614,525.7 1630.614,526.731 C1630.614,527.868 1630.156,528.794 1629.466,528.794 C1628.775,528.794 1628.318,527.868 1628.318,526.731 C1628.318,525.7 1628.775,524.784 1629.466,524.784" fill="#1A1919"/>
      <path d="M1625.682,536.262 L1628.775,542.108 L1625.449,539.131 C1625.449,539.131 1623.154,543.265 1623.154,542.565 C1623.154,541.884 1625.682,536.262 1625.682,536.262" fill="#1A1919"/>
      <path d="M1613.515,527.538 C1614.205,527.538 1614.663,528.461 1614.663,529.601 C1614.663,530.632 1614.205,531.545 1613.515,531.545 C1612.825,531.545 1612.358,530.632 1612.358,529.601 C1612.358,528.461 1612.825,527.538 1613.515,527.538" fill="#1A1919"/>
      <path d="M1557.843,554.616 C1563.357,553.692 1569.212,553.935 1574.834,554.741 C1563.474,558.642 1547.747,564.147 1543.496,564.147 C1540.52,564.147 1542.591,560.237 1544.653,557.262 C1548.67,556.347 1553.028,555.424 1557.843,554.616" fill="#5D442C"/>
    </g>
  </g>
</svg>
